<?xml version="1.0" encoding="iso-8859-1"?>
<!-- Generator: Adobe Illustrator 19.0.0, SVG Export Plug-In . SVG Version: 6.00 Build 0)  -->
<svg version="1.1" id="Layer_1" xmlns="http://www.w3.org/2000/svg" xmlns:xlink="http://www.w3.org/1999/xlink" x="0px" y="0px"
	 viewBox="0 0 512 512" style="enable-background:new 0 0 512 512;" xml:space="preserve">
<g>
	<g>
		<path stroke="black" stroke-width="3"  d="M396,324c-2.212,0-4,1.792-4,4v148c0,6.616-5.384,12-12,12H132c-6.616,0-12-5.384-12-12V328c0-2.208-1.788-4-4-4
			s-4,1.792-4,4v148c0,11.028,8.972,20,20,20h248c11.028,0,20-8.972,20-20V328C400,325.792,398.212,324,396,324z"/>
	</g>
</g>
<g>
	<g>
		<path stroke="black" stroke-width="3"  d="M404,304H108c-2.212,0-4,1.792-4,4v16c0,2.208,1.788,4,4,4h296c2.212,0,4-1.792,4-4v-16C408,305.792,406.212,304,404,304z
			 M400,320H112v-8h288V320z"/>
	</g>
</g>
<g>
	<g>
		<path stroke="black" stroke-width="3" d="M380,488c-2.212,0-4,1.792-4,4v12H136v-12c0-2.208-1.788-4-4-4c-2.212,0-4,1.792-4,4v16c0,2.208,1.788,4,4,4h248
			c2.212,0,4-1.792,4-4v-16C384,489.792,382.212,488,380,488z"/>
	</g>
</g>
<g>
	<g>
		<path stroke="black" stroke-width="3" d="M256,324c-2.212,0-4,1.792-4,4v164c0,2.208,1.788,4,4,4c2.212,0,4-1.792,4-4V328C260,325.792,258.212,324,256,324z"/>
	</g>
</g>
<g>
	<g>
		<path stroke="black" stroke-width="3" d="M256,368H116c-2.212,0-4,1.792-4,4s1.788,4,4,4h140c2.212,0,4-1.792,4-4S258.212,368,256,368z"/>
	</g>
</g>
<g>
	<g>
		<path stroke="black" stroke-width="3" d="M396,368H272c-2.212,0-4,1.792-4,4s1.788,4,4,4h124c2.212,0,4-1.792,4-4S398.212,368,396,368z"/>
	</g>
</g>
<g>
	<g>
		<path stroke="black" stroke-width="3" d="M204,340h-36c-2.212,0-4,1.792-4,4s1.788,4,4,4h36c2.212,0,4-1.792,4-4S206.212,340,204,340z"/>
	</g>
</g>
<g>
	<g>
		<path stroke="black" stroke-width="3" d="M348,340h-36c-2.212,0-4,1.792-4,4s1.788,4,4,4h36c2.212,0,4-1.792,4-4S350.212,340,348,340z"/>
	</g>
</g>
<g>
	<g>
		<path stroke="black" stroke-width="3" d="M236,412c-2.212,0-4,1.792-4,4v32c0,2.208,1.788,4,4,4c2.212,0,4-1.792,4-4v-32C240,413.792,238.212,412,236,412z"/>
	</g>
</g>
<g>
	<g>
		<path stroke="black" stroke-width="3" d="M276,412c-2.212,0-4,1.792-4,4v32c0,2.208,1.788,4,4,4c2.212,0,4-1.792,4-4v-32C280,413.792,278.212,412,276,412z"/>
	</g>
</g>
<g>
	<g>
		<path stroke="black" stroke-width="3" d="M352,0H160c-11.028,0-20,8.972-20,20v240c0,11.028,8.972,20,20,20h192c11.028,0,20-8.972,20-20V20
			C372,8.972,363.028,0,352,0z M364,260c0,6.616-5.384,12-12,12H160c-6.616,0-12-5.384-12-12V20c0-6.616,5.384-12,12-12h192
			c6.616,0,12,5.384,12,12V260z"/>
	</g>
</g>
<g>
	<g>
		<path stroke="black" stroke-width="3" d="M352,16H160c-2.212,0-4,1.792-4,4v240c0,2.208,1.788,4,4,4h192c2.212,0,4-1.792,4-4V20C356,17.792,354.212,16,352,16z
			 M348,256H164V24h184V256z"/>
	</g>
</g>
<g>
	<g>
		<path stroke="black" stroke-width="3" d="M230.904,85.08l-66.616-66.616c-1.564-1.564-4.092-1.564-5.656,0c-1.564,1.564-1.564,4.092,0,5.656l66.62,66.62
			c0.78,0.78,1.804,1.172,2.828,1.172c1.02,0,2.044-0.392,2.824-1.176C232.468,89.172,232.468,86.644,230.904,85.08z"/>
	</g>
</g>
<g>
	<g>
		<path stroke="black" stroke-width="3" d="M290.912,145.092l-40.008-40.008c-1.564-1.564-4.092-1.564-5.656,0c-1.564,1.564-1.564,4.092,0,5.656l40.008,40.004
			c0.78,0.78,1.804,1.172,2.828,1.172s2.048-0.388,2.828-1.168C292.476,149.184,292.476,146.656,290.912,145.092z"/>
	</g>
</g>
<g>
	<g>
		<path stroke="black" stroke-width="3" d="M354.828,252.816l-143.992-144c-1.564-1.564-4.092-1.564-5.656,0c-1.564,1.564-1.564,4.092,0,5.656l143.992,144
			c0.78,0.78,1.804,1.172,2.828,1.172s2.048-0.392,2.828-1.172C356.392,256.908,356.392,254.38,354.828,252.816z"/>
	</g>
</g>
<g>
</g>
<g>
</g>
<g>
</g>
<g>
</g>
<g>
</g>
<g>
</g>
<g>
</g>
<g>
</g>
<g>
</g>
<g>
</g>
<g>
</g>
<g>
</g>
<g>
</g>
<g>
</g>
<g>
</g>
</svg>
