<?xml version="1.0" encoding="iso-8859-1"?>
<!-- Generator: Adobe Illustrator 19.0.0, SVG Export Plug-In . SVG Version: 6.00 Build 0)  -->
<svg version="1.1" id="Layer_1" xmlns="http://www.w3.org/2000/svg" xmlns:xlink="http://www.w3.org/1999/xlink" x="0px" y="0px"
	 viewBox="0 0 512 512" style="enable-background:new 0 0 512 512;" xml:space="preserve">
<g>
	<g>
		<path d="M29.032,216.136c-2.132-0.564-4.324,0.696-4.896,2.832l-16,60c-0.572,2.136,0.7,4.324,2.832,4.896
			c0.348,0.092,0.692,0.136,1.036,0.136c1.764,0,3.384-1.18,3.86-2.968l16-60C32.436,218.896,31.164,216.708,29.032,216.136z"/>
	</g>
</g>
<g>
	<g>
		<path d="M499.924,279.212l-12-60c-0.436-2.16-2.504-3.572-4.708-3.136c-2.164,0.436-3.568,2.54-3.136,4.708l12,60
			c0.376,1.9,2.048,3.216,3.916,3.216c0.256,0,0.524-0.024,0.792-0.08C498.952,283.484,500.356,281.38,499.924,279.212z"/>
	</g>
</g>
<g>
	<g>
		<path d="M484,216h-44c-2.212,0-4,1.792-4,4s1.788,4,4,4h44c2.212,0,4-1.792,4-4S486.212,216,484,216z"/>
	</g>
</g>
<g>
	<g>
		<path d="M72,216H28c-2.212,0-4,1.792-4,4s1.788,4,4,4h44c2.212,0,4-1.792,4-4S74.212,216,72,216z"/>
	</g>
</g>
<g>
	<g>
		<path d="M256,152c2.212,0,4-1.792,4-4v-4c0-11.028-8.972-20-20-20H88c-11.028,0-20,8.972-20,20v76c0,11.028,8.972,20,20,20h152
			c11.028,0,20-8.972,20-20v-44c0-2.208-1.788-4-4-4c-2.212,0-4,1.792-4,4v44c0,6.616-5.384,12-12,12H88c-6.616,0-12-5.384-12-12
			v-76c0-6.616,5.384-12,12-12h152c6.616,0,12,5.384,12,12v4C252,150.208,253.788,152,256,152z"/>
	</g>
</g>
<g>
	<g>
		<path d="M424,124H272c-11.028,0-20,8.972-20,20c0,2.208,1.788,4,4,4c2.212,0,4-1.792,4-4c0-6.616,5.384-12,12-12h152
			c6.616,0,12,5.384,12,12v76c0,6.616-5.384,12-12,12H272c-6.616,0-12-5.384-12-12c0-2.208-1.788-4-4-4c-2.212,0-4,1.792-4,4
			c0,11.028,8.972,20,20,20h152c11.028,0,20-8.972,20-20v-76C444,132.972,435.028,124,424,124z"/>
	</g>
</g>
<g>
	<g>
		<path d="M508,276H4c-2.212,0-4,1.792-4,4v16c0,2.208,1.788,4,4,4h504c2.212,0,4-1.792,4-4v-16C512,277.792,510.212,276,508,276z
			 M504,292H8v-8h496V292z"/>
	</g>
</g>
<g>
	<g>
		<path d="M492,68H20c-2.212,0-4,1.792-4,4v16c0,2.208,1.788,4,4,4h472c2.212,0,4-1.792,4-4V72C496,69.792,494.212,68,492,68z
			 M488,84H24v-8h464V84z"/>
	</g>
</g>
<g>
	<g>
		<path d="M500,292c-2.212,0-4,1.792-4,4v140h-20v-36c0-2.208-1.788-4-4-4H40c-2.212,0-4,1.792-4,4v36H16V300h24
			c2.212,0,4-1.792,4-4s-1.788-4-4-4H12c-2.212,0-4,1.792-4,4v144c0,2.208,1.788,4,4,4h28c2.212,0,4-1.792,4-4v-36h424v36
			c0,2.208,1.788,4,4,4h28c2.212,0,4-1.792,4-4V296C504,293.792,502.212,292,500,292z"/>
	</g>
</g>
<g>
	<g>
		<path d="M484,84c-2.212,0-4,1.792-4,4v132c0,2.208,1.788,4,4,4c2.212,0,4-1.792,4-4V88C488,85.792,486.212,84,484,84z"/>
	</g>
</g>
<g>
	<g>
		<path d="M28,84c-2.212,0-4,1.792-4,4v132c0,2.208,1.788,4,4,4s4-1.792,4-4V88C32,85.792,30.212,84,28,84z"/>
	</g>
</g>
<g>
	<g>
		<path d="M56,84c-2.212,0-4,1.792-4,4v80c0,2.208,1.788,4,4,4s4-1.792,4-4V88C60,85.792,58.212,84,56,84z"/>
	</g>
</g>
<g>
	<g>
		<path d="M456,84c-2.212,0-4,1.792-4,4v80c0,2.208,1.788,4,4,4c2.212,0,4-1.792,4-4V88C460,85.792,458.212,84,456,84z"/>
	</g>
</g>
<g>
	<g>
		<path d="M72,164H56c-2.212,0-4,1.792-4,4s1.788,4,4,4h16c2.212,0,4-1.792,4-4S74.212,164,72,164z"/>
	</g>
</g>
<g>
	<g>
		<path d="M456,164h-16c-2.212,0-4,1.792-4,4s1.788,4,4,4h16c2.212,0,4-1.792,4-4S458.212,164,456,164z"/>
	</g>
</g>
<g>
</g>
<g>
</g>
<g>
</g>
<g>
</g>
<g>
</g>
<g>
</g>
<g>
</g>
<g>
</g>
<g>
</g>
<g>
</g>
<g>
</g>
<g>
</g>
<g>
</g>
<g>
</g>
<g>
</g>
</svg>
