<?xml version="1.0" encoding="iso-8859-1"?>
<svg version="1.1" id="Layer_1" xmlns="http://www.w3.org/2000/svg" xmlns:xlink="http://www.w3.org/1999/xlink" x="0px" y="0px"
	 viewBox="0 0 480.192 480.192" style="enable-background:new 0 0 480.192 480.192;" xml:space="preserve">
<g>
	<g>
		<path stroke-width="2" d="M472.096,0.192h-120c-4.424,0-8,3.584-8,8v80v104c0,4.416,3.576,8,8,8h40h40h32v16h-88c-4.424,0-8,3.584-8,8s3.576,8,8,8
			h88v56h-24v-24c0-4.416-3.576-8-8-8h-32c-4.424,0-8,3.584-8,8c0,4.416,3.576,8,8,8h24v24v80h-24c-4.424,0-8,3.584-8,8
			c0,4.416,3.576,8,8,8h32h32v16h-80c-4.424,0-8,3.584-8,8c0,4.416,3.576,8,8,8h80v40h-80c-4.424,0-8,3.584-8,8c0,4.416,3.576,8,8,8
			h88c4.424,0,8-3.584,8-8v-56v-32v-88v-72v-32v-104v-80C480.096,3.776,476.52,0.192,472.096,0.192z M464.096,376.192h-24v-72h24
			V376.192z M384.096,112.192v72h-24v-88h24V112.192z M424.096,184.192h-24v-64h24V184.192z M464.096,184.192h-24v-72v-16h24
			V184.192z M464.096,80.192h-32c-4.424,0-8,3.584-8,8v16h-24v-16c0-4.416-3.576-8-8-8h-32v-64h104V80.192z"/>
	</g>
</g>
<g>
	<g>
		<path stroke-width="2" d="M360.096,272.192h-16v-32c0-13.232-10.768-24-24-24h-128h-128c-13.232,0-24,10.768-24,24v32h-16
			c-13.232,0-24,10.768-24,24v16v40c0,13.232,10.768,24,24,24v32v16c0,10.416,6.712,19.216,16,22.528v17.472h-8
			c-4.424,0-8,3.584-8,8c0,4.416,3.576,8,8,8h16h32h16c4.424,0,8-3.584,8-8c0-4.416-3.576-8-8-8h-8v-16h104h104v16h-8
			c-4.424,0-8,3.584-8,8c0,4.416,3.576,8,8,8h16h32h16c4.424,0,8-3.584,8-8c0-4.416-3.576-8-8-8h-8V446.72
			c9.288-3.312,16-12.112,16-22.528v-16v-32c13.232,0,24-10.768,24-24v-40v-16C384.096,282.96,373.328,272.192,360.096,272.192z
			 M16.096,296.192c0-4.408,3.584-8,8-8h24v16h-32V296.192z M32.096,360.192h-8c-4.416,0-8-3.592-8-8v-32h32v40H32.096z
			 M72.096,464.192h-16v-16h16V464.192z M184.096,432.192h-104h-32c-4.416,0-8-3.592-8-8v-8h144V432.192z M184.096,400.192h-144v-24
			h16h128V400.192z M184.096,360.192h-120v-48v-32c0-4.416-3.576-8-8-8v-32c0-4.408,3.584-8,8-8h120V360.192z M200.096,232.192h120
			c4.416,0,8,3.592,8,8v32c-4.424,0-8,3.584-8,8v32v48h-120V232.192z M328.096,464.192h-16v-16h16V464.192z M344.096,424.192
			c0,4.408-3.584,8-8,8h-32h-104v-16h144V424.192z M344.096,400.192h-144v-24h128h16V400.192z M368.096,352.192c0,4.408-3.584,8-8,8
			h-8h-16v-40h32V352.192z M368.096,304.192h-32v-16h24c4.416,0,8,3.592,8,8V304.192z"/>
	</g>
</g>
<g>
	<g>
		<path stroke-width="2" d="M136.096,280.192h-8v-8c0-4.416-3.576-8-8-8s-8,3.584-8,8v8h-8c-4.424,0-8,3.584-8,8c0,4.416,3.576,8,8,8h8v8
			c0,4.416,3.576,8,8,8s8-3.584,8-8v-8h8c4.424,0,8-3.584,8-8C144.096,283.776,140.52,280.192,136.096,280.192z"/>
	</g>
</g>
<g>
	<g>
		<path stroke-width="2" d="M288.096,280.192h-8v-8c0-4.416-3.576-8-8-8s-8,3.584-8,8v8h-8c-4.424,0-8,3.584-8,8c0,4.416,3.576,8,8,8h8v8
			c0,4.416,3.576,8,8,8s8-3.584,8-8v-8h8c4.424,0,8-3.584,8-8C296.096,283.776,292.52,280.192,288.096,280.192z"/>
	</g>
</g>
<g>
	<g>
		<path stroke-width="2" d="M216.992,93.576l-15.648-45.232c0.712-2.96,0.76-5.992,0.76-7.624c0-22.832-18.448-40.72-42-40.72s-42,18.072-42,41.144
			c0,2.76,0.264,5.104,0.736,7.104l-16.608,45.184c-0.904,2.456-0.544,5.192,0.944,7.336c1.504,2.144,3.952,3.424,6.568,3.424
			h99.688c2.584,0,5.016-1.248,6.512-3.36C217.44,98.72,217.832,96.016,216.992,93.576z M160.104,16.008
			c14.632,0,25.72,10.36,25.992,24.184H134.12C134.624,26.552,145.856,16.008,160.104,16.008z M121.208,88.192l11.768-32h54.16
			l11.072,32H121.208z"/>
	</g>
</g>
<g>
	<g>
		<path stroke-width="2" d="M100.096,139.408c-3.824-2.216-8.72-0.904-10.928,2.928l-12.616,21.856c-2.216,3.832-0.904,8.72,2.928,10.928
			c1.256,0.728,2.632,1.072,3.992,1.072c2.768,0,5.456-1.432,6.936-4l12.616-21.856C105.232,146.504,103.92,141.616,100.096,139.408
			z"/>
	</g>
</g>
<g>
	<g>
		<path stroke-width="2" d="M239.024,164.192l-12.616-21.856c-2.216-3.832-7.12-5.144-10.928-2.928c-3.832,2.208-5.144,7.104-2.928,10.928
			l12.616,21.856c1.488,2.568,4.168,4,6.936,4c1.36,0,2.736-0.344,3.992-1.072C239.928,172.912,241.24,168.016,239.024,164.192z"/>
	</g>
</g>
<g>
	<g>
		<path stroke-width="2" d="M160.096,136.192c-4.424,0-8,3.584-8,8v24c0,4.416,3.576,8,8,8s8-3.584,8-8v-24
			C168.096,139.776,164.52,136.192,160.096,136.192z"/>
	</g>
</g>
<g>
</g>
<g>
</g>
<g>
</g>
<g>
</g>
<g>
</g>
<g>
</g>
<g>
</g>
<g>
</g>
<g>
</g>
<g>
</g>
<g>
</g>
<g>
</g>
<g>
</g>
<g>
</g>
<g>
</g>
</svg>
