<?xml version="1.0" encoding="iso-8859-1"?>
<!-- Generator: Adobe Illustrator 18.0.0, SVG Export Plug-In . SVG Version: 6.00 Build 0)  -->
<!DOCTYPE svg PUBLIC "-//W3C//DTD SVG 1.1//EN" "http://www.w3.org/Graphics/SVG/1.1/DTD/svg11.dtd">
<svg version="1.1" id="Capa_1" xmlns="http://www.w3.org/2000/svg" xmlns:xlink="http://www.w3.org/1999/xlink" x="0px" y="0px"
	 viewBox="0 0 462.768 462.768" style="enable-background:new 0 0 462.768 462.768;" xml:space="preserve">
<path stroke="black" stroke-width="3" d="M462.768,149.208c0-7.778-6.328-14.105-14.105-14.105H14.105C6.328,135.103,0,141.431,0,149.208v140.55h5.061v37.906h16.924
	l5.123-23.021H435.66l5.123,23.021h16.925v-37.906h5.061V149.208z M455.768,149.208v133.55h-26.044V142.103h18.938
	C452.581,142.103,455.768,145.291,455.768,149.208z M74.751,233.991h313.267l25.897,16.021H48.854L74.751,233.991z M40.044,257.013
	h382.68v25.746H40.044V257.013z M422.724,142.103v105.129l-30.211-18.691v-86.438H422.724z M385.513,142.103v84.888H77.255v-84.888
	H385.513z M70.255,228.541l-30.211,18.691V142.103h30.211V228.541z M7,149.208c0-3.918,3.188-7.105,7.105-7.105h18.938v140.656H7
	V149.208z M16.372,320.665h-4.311v-30.906h11.188L16.372,320.665z M28.665,297.644l1.755-7.885h401.928l1.754,7.885H28.665z
	 M450.708,320.665h-4.312l-6.877-30.906h11.188V320.665z"/>
<g>
</g>
<g>
</g>
<g>
</g>
<g>
</g>
<g>
</g>
<g>
</g>
<g>
</g>
<g>
</g>
<g>
</g>
<g>
</g>
<g>
</g>
<g>
</g>
<g>
</g>
<g>
</g>
<g>
</g>
</svg>
