<?xml version="1.0" encoding="UTF-8" standalone="no"?>
<!-- Created with Inkscape (http://www.inkscape.org/) -->

<svg
   width="32"
   height="32"
   viewBox="0 0 8.4666665 8.4666669"
   version="1.1"
   id="svg1837"
   inkscape:version="1.1.2 (1:1.1+202202050950+0a00cf5339)"
   sodipodi:docname="favicon.svg"
   xmlns:inkscape="http://www.inkscape.org/namespaces/inkscape"
   xmlns:sodipodi="http://sodipodi.sourceforge.net/DTD/sodipodi-0.dtd"
   xmlns="http://www.w3.org/2000/svg"
   xmlns:svg="http://www.w3.org/2000/svg">
  <sodipodi:namedview
     id="namedview1839"
     pagecolor="#ffffff"
     bordercolor="#666666"
     borderopacity="1.0"
     inkscape:pageshadow="2"
     inkscape:pageopacity="0.0"
     inkscape:pagecheckerboard="0"
     inkscape:document-units="px"
     showgrid="false"
     units="px"
     inkscape:zoom="24.886869"
     inkscape:cx="14.766824"
     inkscape:cy="15.530278"
     inkscape:window-width="2488"
     inkscape:window-height="1376"
     inkscape:window-x="1992"
     inkscape:window-y="27"
     inkscape:window-maximized="1"
     inkscape:current-layer="Layer_1-2" />
  <defs
     id="defs1834">
    <style
       id="style1846">.cls-1{fill:#063f86;}.cls-2{fill:#ed8717;}</style>
  </defs>
  <g
     inkscape:label="Layer 1"
     inkscape:groupmode="layer"
     id="layer1">
    <g
       id="Layer_1-2"
       data-name="Layer 1"
       transform="matrix(0.26458333,0,0,0.26458333,-39.470518,-8.9815794)">
      <path
         class="cls-1"
         d="m 165.14785,50.864584 c -0.59115,2.71337 -1.24732,5.414917 -1.7025,8.151933 -0.24237,1.495605 -0.73303,2.181337 -2.3646,2.045373 a 40.913363,40.913363 0 0 0 -5.95877,0 c -1.4424,0.09458 -1.85029,-0.472919 -2.0572,-1.820736 q -1.46013,-9.499751 -3.15082,-18.969944 c -0.23645,-1.347818 -0.0591,-1.956701 1.43649,-1.814825 1.02269,0.09458 2.06311,0 3.09171,0 3.18629,0 3.18629,0 3.54689,3.27496 0.29557,2.411885 0.59115,4.829681 0.91037,7.241565 0.065,0.443361 -0.23646,1.223677 0.46109,1.259146 0.8217,0.04138 0.67391,-0.833519 0.76849,-1.341906 0.53204,-2.754751 1.10545,-5.50359 1.46605,-8.276075 0.2069,-1.602011 0.70347,-2.246363 2.45918,-2.204982 4.72918,0.106407 4.72918,0 5.52132,4.610955 q 0.62662,3.594181 1.30053,7.170627 c 0.0591,0.331043 -0.0532,0.839431 0.43745,0.857165 0.49065,0.01774 0.39016,-0.526122 0.43154,-0.827607 0.43745,-3.440482 0.89854,-6.880965 1.25323,-10.327358 0.11823,-1.129093 0.53794,-1.51334 1.65521,-1.454225 1.61975,0.08276 3.24541,0.05911 4.85924,0 1.00495,-0.03547 1.30644,0.348778 1.14683,1.312349 q -1.6493,10.049519 -3.26314,20.099037 c -0.14187,0.874899 -0.59115,1.318261 -1.48378,1.182297 -0.0769,0 -0.14779,0 -0.22464,0 -2.63652,-0.04729 -5.91148,0.815784 -7.74404,-0.419716 -1.83256,-1.235499 -1.31826,-4.729185 -1.91532,-7.212007 -0.20099,-0.833519 -0.35469,-1.678861 -0.53203,-2.518291 z"
         id="path1854"
         style="stroke-width:0.591148" />
    </g>
  </g>
</svg>
