<svg xmlns="http://www.w3.org/2000/svg" viewBox="0 0 327.58 80.24"><defs><style>.cls-1{fill:#063f86;}.cls-2{fill:#ed8717;}</style></defs><title>Asset 1</title><g id="Layer_2" data-name="Layer 2"><g id="Layer_1-2" data-name="Layer 1"><path class="cls-1" d="M161.69,45.76c-7.24,2.18-12.46.59-15.94-4.84-.17.12-.51.27-.5.36.65,3.81-.95,4.77-4.68,4.62-8-.32-8-.1-8-8,0-5.62-.14-11.25,0-16.86.16-4.75.7-9.82,5.82-11.83a29.12,29.12,0,0,1,23.39.44c2.24,1,3.71,6.31,3.11,8.73-.4,1.61-1.56,1.34-2.62,1.4-1.51.09-3,.82-3.26,2.08s1.13,2.21,2.16,3a11.26,11.26,0,0,0,2.87,1.73c3.45,1.25,5,3.77,5.3,7.29A2.16,2.16,0,0,0,170.58,36a59.24,59.24,0,0,1,.47-6.83c1.54-8.32,2.71-8.83,10.13-10.81,4.61-1.24,9.45-.63,13.92.37,2.83.64,5,3.68,5.36,7.1.92,7.77.91,7.77-6.75,7.77-2.62,0-5.24,0-7.86,0-1.2,0-2.63-.32-2.47,1.74s-.43,4.78,2.26,5.79c1.77.67,2.88-.61,3.1-2.29.25-2,1.28-2.4,3-2.3a45.67,45.67,0,0,0,6.72,0c2.8-.26,2.76,1,2.12,3.08a8.57,8.57,0,0,1-6.21,5.94,33.49,33.49,0,0,1-15.17.47A4.61,4.61,0,0,1,176,43.47c-.59-1.09-1.55-.67-2.43-.6-1.07-.9-1.18-2.32-1.84-3.43-.45-.74,0-2.2-1.1-2.22s-1.35,1.22-1.47,2.2-.9,1-1.58,1.2c-.47,0-.74.14-.74.64l0,0c-3-.54-3.17,2.33-4.55,3.74l-.71.83ZM145.18,25.7h0v4.88c0,6.15,0,6.09,6.3,6.22,1.29,0,3.11-1,3.8,1.2.33,1,.44,2.34,2,2.28a1.62,1.62,0,0,0,1.52-1.41c.35-1.49-.52-2.4-1.63-3.06-1.71-1-3.52-1.87-5.23-2.89-5.77-3.44-6.24-8.48-1.15-12.93,1.95-1.69,1.2-3.66.72-5.48s-2-2.14-3.63-1.8c-2.16.44-2.58,2.19-2.64,4C145.11,19.7,145.18,22.7,145.18,25.7Zm43.47,1.77c-.19-2.24-.31-4.18-2.42-4.16-2.54,0-2.42,2.4-2.74,4.15-.2,1.08.52,2.35,1.49,1.79C186.19,28.55,189,30,188.65,27.47Z" transform="translate(-7.32 -6.99)"/><path class="cls-1" d="M56.87,28.62c-1,4.59-2.11,9.16-2.88,13.79-.41,2.53-1.24,3.69-4,3.46a69.21,69.21,0,0,0-10.08,0c-2.44.16-3.13-.8-3.48-3.08q-2.47-16.07-5.33-32.09c-.4-2.28-.1-3.31,2.43-3.07,1.73.16,3.49,0,5.23,0,5.39,0,5.39,0,6,5.54.5,4.08,1,8.17,1.54,12.25.11.75-.4,2.07.78,2.13,1.39.07,1.14-1.41,1.3-2.27.9-4.66,1.87-9.31,2.48-14,.35-2.71,1.19-3.8,4.16-3.73,8,.18,8,0,9.34,7.8q1.06,6.08,2.2,12.13c.1.56-.09,1.42.74,1.45s.66-.89.73-1.4c.74-5.82,1.52-11.64,2.12-17.47.2-1.91.91-2.56,2.8-2.46,2.74.14,5.49.1,8.22,0,1.7-.06,2.21.59,1.94,2.22q-2.79,17-5.52,34c-.24,1.48-1,2.23-2.51,2-.13,0-.25,0-.38,0-4.46-.08-10,1.38-13.1-.71s-2.23-8-3.24-12.2c-.34-1.41-.6-2.84-.9-4.26Z" transform="translate(-7.32 -6.99)"/><path class="cls-1" d="M307,44.5c-.71.65-1.33,1.72-2.49,1.1-.94-.5-.53-1.56-.53-2.37,0-11,0-21.95-.06-32.93,0-2.21.77-2.65,2.8-2.69,9.51-.21,9.51-.27,9.52,9.42,0,2.62,0,5.24,0,7.86,0,.44-.11,1.11.61,1.1.26,0,.55-.38.78-.64a3.11,3.11,0,0,0,.62-.92c2.6-7.41,8.83-5.58,14.3-5.65,1.49,0,1.37.65.62,1.55a3.84,3.84,0,0,1-.47.58c-5.41,4.11-4.86,8.87-1.83,14.17,1.53,2.69,2.39,5.74,3.66,8.59.73,1.61.42,2.28-1.41,2.14-1-.08-2,0-3,0-7.53,0-7.58,0-10.06-7-.65-1.84-1.1-2.2-2.46-.49a6.65,6.65,0,0,0-1.42,4.47c0,2.76-2,4-4.59,3-1.67-.65.18-1.64-.23-2.41,2.06-2.15,1.89-5.15,2.89-7.71.52-1.35-.36-2.13-1.81-1.84-1.91.38-3.55,1-3.47,3.5A12.86,12.86,0,0,1,307,44.5Z" transform="translate(-7.32 -6.99)"/><path class="cls-1" d="M259,41.13c-4.12-.66-3.95-3.47-3.59-6.68a22.41,22.41,0,0,0-.38-7.82c-.27-1.12-.77-2.27-2.11-2.26s-2.15,1-2.39,2.41a36.83,36.83,0,0,0,0,10.38c.27,2.56-.57,3-2.71,2.78a12,12,0,0,0-2.61.15c-2.33.32-5.49,1.75-6.77.75-1.73-1.34-.55-4.64-.58-7.09-.08-7.62.09-15.23-.09-22.84-.06-2.69.83-3.33,3.39-3.32,9.05,0,9.06,0,9.07,9.13,0,.62,0,1.25,0,1.87-.11,1.92,0,2.77,2.34,1.49,8.66-4.72,15.28-.92,15.36,8.85,0,4.12,1.07,8.5-1.66,12.3Z" transform="translate(-7.32 -6.99)"/><path class="cls-1" d="M103.66,33.62c-1.62,0-3.24-.09-4.85,0-1.28.1-3.22-.79-3.71.65a6.81,6.81,0,0,0,.63,5.79c1.16,1.86,4,1.62,4.26-.55.49-3.39,2.54-3,4.79-3,1.37.05,2.74,0,4.11,0,4.14,0,4.56.71,2.71,4.4a8.84,8.84,0,0,1-6,4.68,31.68,31.68,0,0,1-15.51.14,8.32,8.32,0,0,1-4.44-2.58c-4.52-5.25-4-11.36-2.4-17.36,1.39-5.32,5.87-7.13,10.82-7.72a33.06,33.06,0,0,1,7.44,0c9,.95,10.81,5.23,11.09,13.39,0,1.47-.56,2.26-2.23,2.16C108.14,33.52,105.9,33.62,103.66,33.62ZM97,28.9c1.47-.22,3.59.62,3.12-2.24-.27-1.62-.4-3.53-2.53-3.37-2.45.19-2.42,2.44-2.56,4.26C94.94,29.07,95.71,29.53,97,28.9Z" transform="translate(-7.32 -6.99)"/><path class="cls-1" d="M233.5,45.78c-3.23,0-6.47-.1-9.7.06-2.14.11-2.81-.64-2.76-2.75.13-5,.08-10,0-15,0-1.56.17-3.71-2.09-3.7s-2.13,2-2.13,3.69c0,5-.09,10,0,15,.05,2.1-.56,3-2.73,2.75a47.83,47.83,0,0,0-5.22,0c-1,0-1.72-.22-1.58-1.43,1.83-1.54,1-4.43,3-5.88.93-.43.82-3.38,2.83-1.18A12.81,12.81,0,0,0,214.64,32c0-1.16,0-2.35-1.39-2.68s-2.47-.1-2.81,1.51a63.1,63.1,0,0,0-4.8,9.63c-1.31.47-1.45-.32-1.45-1.32,0-6.12,0-12.24,0-18.36,0-1.33.25-2.12,1.83-2.07,3,.08,6,0,9,0,.12,0,.32-.05.36,0,2.57,3.35,5,.28,7.38-.25,7.06-1.58,10.78,1.3,10.77,8.57,0,6.25,0,12.49-.05,18.74Z" transform="translate(-7.32 -6.99)"/><path class="cls-1" d="M288.78,46.43c-1.12.07-2.24.2-3.36.21C272.52,46.73,266,35.91,272,24.25a9.93,9.93,0,0,1,2.85-3.43c4.81-3.68,16.83-4.08,21.76-.48a8.26,8.26,0,0,1,3.44,9c-2.28.52-3.42,2.3-4.52,4.13-3.36.07-6.71.12-10.07.21-.83,0-1.79-.27-2.36.67-.71,1.17.25,6.44,1.39,6.62A3.31,3.31,0,0,0,288.64,38c.23-1.43,1.14-1.39,2.16-1.39,1.21,0,2.6-.3,2.61,1.63Zm-5.53-20c-.26,1.52.11,3.37,1,2.88,1.31-.75,3.91.92,4-1.87.05-1.67.17-3.82-2.1-4.12S283.62,25.15,283.25,26.39Z" transform="translate(-7.32 -6.99)"/><path class="cls-2" d="M295.5,33.42c1.1-1.83,2.24-3.61,4.52-4.13.19,1.68,1.13,3.44-1.24,4.6a2.48,2.48,0,0,0-1,2.86l.07,0c-.71-.14-.74.3-.67.81-1.08,2.27-2.17,4.54-3.25,6.8a122.36,122.36,0,0,0-11.17,19.92c3.43-1.47,5.27-4.5,7.72-6.89.8-.78,1.63-1.53,2.46-2.28a2.42,2.42,0,0,1,2.8-.39c1.23.74.12,1.8-.2,2.6-1.07,2.78-3.1,5.13-3.72,8.12-.17.83-.42,1.85.63,2.28a1.86,1.86,0,0,0,2.57-.87c3-7.86,8.83-14.14,11.9-21.94a1.19,1.19,0,0,0,0-.38,12.86,12.86,0,0,0,2-7.21c-.08-2.52,1.56-3.12,3.47-3.5,1.45-.29,2.33.49,1.81,1.84-1,2.56-.83,5.56-2.89,7.71-5,7-8.6,14.81-12.8,22.27-.73,1.29,2.77,1.4.49,3.19-2.78,2.19-6,2.09-8.9,1.85-2.59-.22-1.76-3-1.43-5,.13-.71.36-1.91.06-2.08-.89-.54-1.54.38-2.15,1-1.83,1.68-3.36,3.72-5.6,4.91a2.86,2.86,0,0,1-2.12.36c-.77-.38-.29-1.3-.14-2,1.1-5,3.7-9.36,6-13.83,1.32-2.52,3.27-4.69,4-7.53l4.63-8.2C295.22,37.11,294.81,35,295.5,33.42Zm-6.44,29.09c0,.08-.14.18-.12.24.14.33.32.34.47,0,0,0-.05-.19-.11-.23S289.14,62.52,289.06,62.51Z" transform="translate(-7.32 -6.99)"/><path class="cls-2" d="M205.64,40.5a63.1,63.1,0,0,1,4.8-9.63c1-.08,2-1.62,2.9-.22.76,1.18.06,2-1,3s-2.36,2.83-2,4.87c-2,1.45-1.19,4.34-3,5.88-4.16,5.72-7.37,12-10.71,18.22-.28.52-.72,1.18,0,1.56.25.13.92-.27,1.23-.59,2.08-2.13,4.09-4.34,6.18-6.47A12.62,12.62,0,0,1,207,54.74a3,3,0,0,1,2.48-.13c1,.63,0,1.57-.26,2.25-1.08,2.38-2.38,4.66-3.45,7-.53,1.18-1.48,2.79.08,3.67,1.74,1,2.52-.47,3.28-1.92,2.52-4.83,6.32-8.56,10.6-11.81,1.24-.94,2.72-2.17,4.37-.88,1.85,1.44.74,3.15.06,4.73a8.53,8.53,0,0,1-7.47,5.38,10.08,10.08,0,0,0-2.22.2c-1.54.52-2.81,1.81-2.52,3.27.39,2,2.24,1.1,3.4.7,2.33-.81,4.56-1.9,6.83-2.87l.18.18c-3.31,4.16-7.83,5.62-12.89,5.48a5,5,0,0,0-2.67.27c-3.54,1.65-5.26.4-4.77-3.44a28.52,28.52,0,0,1,1.18-4.27c.25-.32.45-.65,0-.93-.06,0-.35.26-.53.41-2.55,2.37-5.08,4.77-7.67,7.09-.75.66-1.88,1.19-2.74.68s-.14-1.61,0-2.4c1.2-5.43,4.17-10,6.73-14.86C201.14,48.52,204.1,44.9,205.64,40.5Zm15.15,15.78c-1.71.36-2.74,1.81-3.71,3.23-.28.4,0,1,.75.83a5.34,5.34,0,0,0,3.86-3.22C222,56.43,221.46,56.36,220.79,56.28Z" transform="translate(-7.32 -6.99)"/><path class="cls-1" d="M115.83,31.87c0-3.37.17-6.75-.06-10.1-.17-2.58.84-3.05,3.18-3.06,9.45,0,9.45-.09,9.44,9.45,0,4.87-.07,9.74,0,14.61,0,2.09-.31,3.06-2.8,3.1-9.81.16-9.81.26-9.8-9.5Z" transform="translate(-7.32 -6.99)"/><path class="cls-2" d="M127.41,55.83c2-1.44,3.63-3.82,6.62-.9.82.8,3.81-.68,5.81-1,.7-.14,1.81-.49,2,.2.31,1-.7,1.38-1.57,1.61a16.18,16.18,0,0,1-2.51.63c-2.7.21-4.51,1.29-5.48,4.06a11.24,11.24,0,0,1-4.27,5.55c-1.18.82-2.26,2-1.93,3.37s2,1.08,3.16,1.22a36.14,36.14,0,0,1,10.38,2.81c3,1.31,3.36,3.24,1.36,5.86s-5.14,3.48-8,4.43a69.24,69.24,0,0,1-17.1,3.51,4.23,4.23,0,0,1-1.11.09c-3-.55-6.52-.37-7.6-4.17-.52-1.85,3.43-5.77,6.36-6.67.32-.1.81-.28,1-.15.51.47.11.86-.28,1.2-.66.57-1.3,1.18-2,1.72-3.1,2.44-2.85,3.58.67,5.28s7.15,1.21,10.13.42c4.93-1.32,10.16-2.35,14.59-5.35,1.81-1.22,2-2,0-3-3.46-1.78-6.94-3.26-11-3.08s-6.37-1.5-6.62-5.69c-.17-3.06-1.06-6.6,2.4-9.15a21.75,21.75,0,0,1,4.43-2.15l.6.84c-2.1,2.22-3,5.07-4.13,7.83-.26.66-.87,1.37-.08,2a1.54,1.54,0,0,0,2-.28c2.57-2.19,4.82-4.66,5.59-8.1.54-2.4-.59-2.91-2.67-2.2Z" transform="translate(-7.32 -6.99)"/><path class="cls-2" d="M77.64,54.55c-1.82-.34-.86-1.08-.17-1.59,1.28-.94,2.48-2.28,4.29-1.84,1,.25.63,1.21.47,1.89a30.36,30.36,0,0,1-2.82,7.71c-.21.39-.57,1.09-.44,1.22a1.2,1.2,0,0,0,1.69,0c2-1.84,4-3.75,6-5.63,1-1,2.21-2,3.59-1.22s1,2.39.64,3.74c-.5,1.67-1,3.33-1.57,5-.4,1.32-1,2.81.7,3.57,1.53.66,2.59-.26,3.29-1.62a36.1,36.1,0,0,1,6.62-8.44,23.14,23.14,0,0,1,5.57-4.37,2.45,2.45,0,0,1,3.09.19,2.63,2.63,0,0,1,.57,2.77A9.16,9.16,0,0,1,101.4,63a20.09,20.09,0,0,0-2.6.24c-1.57.47-2.84,1.8-2.57,3.24.37,2,2.21,1.11,3.4.71,1.65-.53,3.19-1.4,4.81-2,.38-.15.9.08,1.36.14a3.61,3.61,0,0,1-.37,1c-2,2.46-9.65,4.16-12.72,2.66a.82.82,0,0,0-1.17.21c-1.4,1.47-2.86,1.38-4.29.16s-1.53-3-1.11-4.81,1.52-3.68,1.26-6.28c-3.82,3.5-7.37,6.74-10.9,10-.55.51-1,1.14-1.55,1.61a1.79,1.79,0,0,1-2,.43c-.84-.55-.17-1.33.1-2,1.58-3.8,3.19-7.58,4.77-11.38a15,15,0,0,0,.48-1.81l-.06-1Zm28.54,2.23c0-.79-.4-1.07-.93-.8a7.53,7.53,0,0,0-3.67,3.48c-.27.64.66.49,1,.47C104.64,59.78,105.45,58.25,106.18,56.78Z" transform="translate(-7.32 -6.99)"/><path class="cls-2" d="M162.33,45c1.38-1.41,1.57-4.28,4.55-3.74.11,3.83-3.13,6-4.54,9-.46,1-1.91,1.85-1.21,2.89s2.08.27,3.16.21c1.25-.07,2.49-.12,3.73-.25,1-.11,2.11-1.48,3.06-.31s.2,2.44-.34,3.5A83,83,0,0,1,162.91,69c-.5.65-1.4,1.6-2.14,1.08-1-.68.14-1.55.49-2.23,1.71-3.33,3.52-6.6,5.24-9.93.54-1,1.05-2.13-1-2.19-6.83-.23-11.8,4.38-12,11.49a2.48,2.48,0,0,1-2.86,2.65c-1.84-.08-1.21-1.77-1.11-2.94.14-1.68,1.17-3,1.92-4.42s2.18-2.86,1.36-5.05c-.46-1.21.61-2.31,2-2.77,4.26-1.45,5.62-5.18,6.94-8.94l-.07,0C162.3,45.9,162.36,45.47,162.33,45Z" transform="translate(-7.32 -6.99)"/><path class="cls-2" d="M20,39.67a8.71,8.71,0,0,1,3.59-4.41,5.22,5.22,0,0,1,5.34.18c1.75.91,1.92,2.51,1.66,4.18A44.62,44.62,0,0,1,13.48,68.85a9.28,9.28,0,0,1-2.63,1.37c-1,.38-2.27.75-3.13-.22s-.27-1.9.1-2.82c2-4.89,4.53-9.46,8.46-13.06,2.62-2.4,3.7-2.11,5,1.11.73,1.76,1.27.57,1.62-.09,2.36-4.4,4.55-8.9,5-14,.12-1.57.15-3.43-1.64-4.25s-3.1,0-4.23,1.4A12,12,0,0,1,20,39.67Zm-1.11,20a20.05,20.05,0,0,0-1-3.31c-.19-.39-.84.18-1.14.53a33.78,33.78,0,0,0-5.45,8.75c-.3.7-.75,1.87.92,1.58S18.92,61.42,18.87,59.7Z" transform="translate(-7.32 -6.99)"/><path class="cls-2" d="M317.31,64.16c-3,4-7.24,5.77-12.11,6.19-2.14.18-1.81-1.73-1.65-2.9.55-4.16,9.78-13.7,13.41-14.81,2.16-.65,3.54.83,3.07,3.16a9.44,9.44,0,0,1-7.7,7.2c-.86.14-1.76,0-2.59.26-1.73.46-3.08,1.84-2.68,3.45.46,1.83,2.33.9,3.48.47C312.85,66.32,315.06,65.19,317.31,64.16Zm-.48-7.09c.23-.68-.31-.82-.75-.74-2,.33-3,1.82-4,3.39-.22.39.25.68.61.64C314.75,60.13,316,58.83,316.83,57.07Z" transform="translate(-7.32 -6.99)"/><path class="cls-1" d="M122.36,16.45a12.75,12.75,0,0,0-2.23,0c-3.67.68-4.45-.91-4.46-4.43s.82-5,4.48-4.44a28.66,28.66,0,0,0,5.93,0c1.84-.11,2.25.69,2.34,2.39C128.77,16.45,128.83,16.45,122.36,16.45Z" transform="translate(-7.32 -6.99)"/><path class="cls-2" d="M137,70.43c-2-.13-3-.87-2.72-2.87.52-3.48,9.9-14,13.43-14.93,2.17-.59,3.63.84,3.17,3.09A9.49,9.49,0,0,1,143.19,63a24.42,24.42,0,0,0-2.59.26c-1.71.46-3.14,1.72-2.68,3.42s2.3.87,3.5.5c1.41-.44,2.7-1.26,4.09-1.78.71-.26,1.61-1.35,2.23-.26.41.72-.65,1.22-1.27,1.56A35,35,0,0,1,137,70.43Zm5.56-10.06a7.15,7.15,0,0,0,1.25,0,5.75,5.75,0,0,0,4-3.59c.08-.19-.32-.84-.41-.82-1.8.36-2.9,1.74-4.07,3A6.61,6.61,0,0,0,142.55,60.37Z" transform="translate(-7.32 -6.99)"/><path class="cls-2" d="M24.31,70.41c-2.53,0-3.6-1.2-2.74-3.34,2.55-6.34,7.29-10.8,13-14.33a2.09,2.09,0,0,1,2.73.4,2.65,2.65,0,0,1,.55,2.76A9.4,9.4,0,0,1,30.05,63c-1,.15-2.1-.06-2.93.36-1.31.66-2.8,1.78-2.18,3.43.56,1.48,2.18.82,3.29.42,1.74-.63,3.41-1.48,5.1-2.25.45-.2,1-.54,1.35-.07.58.74-.18,1.11-.64,1.41A34.66,34.66,0,0,1,24.31,70.41ZM34.93,56.63c-.08-.76-.55-.91-1-.65A7.88,7.88,0,0,0,30,59.64c-.3.74.58.83,1.22.62A6.14,6.14,0,0,0,34.93,56.63Z" transform="translate(-7.32 -6.99)"/><path class="cls-2" d="M60.83,70.41C58,70.37,57,69,57.88,67c2.67-6.11,7.25-10.58,12.79-14.12a2.26,2.26,0,0,1,2.78.11c1.06.83,1,1.87.72,3a9.25,9.25,0,0,1-8.23,7.08,7.4,7.4,0,0,0-2.55.33c-1.18.66-2.46,1.76-2.07,3.22.46,1.71,2,.82,3.17.7s2.74-1.62,3.22-.2S66,68.49,65,69A34.47,34.47,0,0,1,60.83,70.41ZM71,57c0-.87-.41-1-.91-.78a7,7,0,0,0-3.84,3.67c-.28.71.54.57,1,.47A5.22,5.22,0,0,0,71,57Z" transform="translate(-7.32 -6.99)"/><path class="cls-2" d="M259,41.13l7.3.1c.88,1.33,1.89,2.94-.81,3a4.64,4.64,0,0,0-4.14,2.36c-1.19,1.71-2.56,1.95-2.89-.75l-.63-.82c-.35-1.26-1.42-1.23-2.39-1.3a64.77,64.77,0,0,0-15.17.76,4.1,4.1,0,0,0-3.12,2.33,2.42,2.42,0,0,1-2.34,1.57c-1.63-.21-1-1.69-1.34-2.62l-.05.07c5.91-5.9,13.49-4.86,20.78-5C255.83,40.86,257.43,41,259,41.13Z" transform="translate(-7.32 -6.99)"/><path class="cls-2" d="M249,46.55a14.55,14.55,0,0,1-2,4.78c-3.27,5.57-7.49,10.6-9.68,16.8a3.1,3.1,0,0,1-2.51,2c-1.5.37-2.2.25-1.52-1.56a39,39,0,0,1,4.16-7.88c3-4.57,6.36-9,8-14.3.37-1.19.87-1.64,2.08-1.47C248.6,45,249.22,45.39,249,46.55Z" transform="translate(-7.32 -6.99)"/><path class="cls-2" d="M183.22,70.61c-2.42.27-2.83-1.4-2.25-3.07,2.07-5.94,5.26-11.21,10.39-15,.94-.7,2.55-1.53,3.44-.63,1.25,1.27.45,3.09-.18,4.54-.43,1-1.38,2.46-2,2.42-1.5-.1-.35-1.52-.52-2.35-.27-1.31-.84-1.41-1.69-.49a39.42,39.42,0,0,0-6.14,9.29,1.49,1.49,0,0,0,.32,2c1.07.74,2.14.28,3.18-.13.68-.27,1.63-.89,2-.18.56,1-.6,1.46-1.29,1.86A10.62,10.62,0,0,1,183.22,70.61Z" transform="translate(-7.32 -6.99)"/><path class="cls-2" d="M269.9,70.63c-2.09.21-3-1.06-2.41-2.73,2.17-6.34,5.32-12.06,11.24-15.72.84-.52,2.1-1.1,2.77-.29,1.17,1.44.28,3.12-.28,4.59-.38,1-1,2.3-2.15,2.36s-.45-1.1-.48-1.72.23-1.33-.54-1.57-1.11.45-1.49.91a43.64,43.64,0,0,0-5.37,8.08c-.39.76-.95,1.59-.33,2.44s1.77.79,2.73.48A18,18,0,0,0,276,66.4c.48-.24,1.06-.39,1.26.13.11.3-.26.94-.58,1.21A12.26,12.26,0,0,1,269.9,70.63Z" transform="translate(-7.32 -6.99)"/><path class="cls-2" d="M171.69,70.52a14.93,14.93,0,0,1-2.34-.5c-.8-.28-2.4-.09-1.91-1.55a2.7,2.7,0,0,1,2.63-1.76c.7.05,1.37.6,2.08.73,1.07.19,2.37,1,3.18,0s-.42-1.77-.81-2.63c-2.29-5,2.22-11.94,7.69-11.79.88,0,2,.06,1.83,1.27a3.86,3.86,0,0,1-2.55,3.4c-1.49.39-.46-.74-.51-1.28-.1-1.2-.95-.84-1.65-.61-2.58.85-3.56,3.91-2.19,6.84C179.52,67.73,177.81,70.51,171.69,70.52Z" transform="translate(-7.32 -6.99)"/><path class="cls-2" d="M258.39,70.52A14.07,14.07,0,0,1,256.1,70c-.82-.29-2.47,0-2.08-1.43a2.61,2.61,0,0,1,2.89-1.82c.59.1,1.14.54,1.73.63,1.06.18,2.31,1,3.15,0s-.3-1.8-.68-2.68c-2.19-5,1.93-11.43,7.41-11.62,1,0,2.33-.2,2.06,1.31a5.45,5.45,0,0,1-2.75,3.75c-.07,0-.46-.27-.45-.4.06-1.06,1.16-2.82-1.38-2-2,.66-2.83,2.31-3.08,4.28a4,4,0,0,0,.88,2.79C267.28,67.93,263.05,70.53,258.39,70.52Z" transform="translate(-7.32 -6.99)"/><path class="cls-2" d="M46.08,56c1.55-1.41,2.66-3.3,4.65-4.24.54-.25,1.08-.81,1.68-.35.79.61.3,1.4,0,2-.47.86-1,2.13-1.71,2.34-5.91,1.7-7.8,7.2-11.12,11.36-.91,1.14-1.52,3.62-3.27,2.59-1.07-.64.34-2.68,1.18-3.88a43.71,43.71,0,0,0,4.24-8.66c.48-1.16,1-4.2,3.66-1.89-.22.52-1.24.94-.54,1.54C45.29,57.16,45.72,56.35,46.08,56Z" transform="translate(-7.32 -6.99)"/><path class="cls-2" d="M116.87,56.39c1.64-1.5,3.24-3,4.93-4.48.52-.44,1.27-1.13,2-.54.89.75.19,1.63-.24,2.35s-.91,1.82-1.58,2c-5.82,1.62-7.67,7.07-10.95,11.13-1,1.19-1.77,3.74-3.24,2.86-1.32-.78.31-2.81,1.14-4.12a26.39,26.39,0,0,0,3.61-7.36,6,6,0,0,1,2.36-3.71c1.8-1.12,1.83,0,1.49,1.39-.22.31-.4.63,0,.9C116.43,56.84,116.7,56.54,116.87,56.39Z" transform="translate(-7.32 -6.99)"/><path class="cls-2" d="M247.84,70.26c-1.23-.38-.69-1-.36-1.64,1.8-3.38,3.49-6.82,5.45-10.1.95-1.6,0-3.81,1.94-5,.82-.53,1.48-1.55,2.58-1,1.31.68.49,1.8.19,2.61-1.93,5.17-5.07,9.63-8.3,14A6.72,6.72,0,0,1,247.84,70.26Z" transform="translate(-7.32 -6.99)"/><path class="cls-2" d="M318.34,70.13c-.93-.21-1-.53-.54-1.27a134.84,134.84,0,0,0,7.12-13.58c.35-.73,1.2-1.55,2.12-1s-.32,1.32-.21,1.86c1.21,6.1-5,8.42-6.64,13C320,69.66,318.94,69.83,318.34,70.13Z" transform="translate(-7.32 -6.99)"/><path class="cls-1" d="M294,44.33c1.08-2.26,2.17-4.53,3.25-6.8l.67-.81-.07,0c3.51-.12,3.2,1.74,2.09,4C298.49,43.7,296.34,45,294,44.33Z" transform="translate(-7.32 -6.99)"/><path class="cls-2" d="M334.86,52.58c-.58,2.42-2.42,3.32-4.59,3.7-.68.12-1.31-.41-.95-1.15a8,8,0,0,1,4.79-3.9C334.7,51,335,51.89,334.86,52.58Z" transform="translate(-7.32 -6.99)"/><path class="cls-2" d="M173.58,42.87c.88-.07,1.84-.49,2.43.6a2.25,2.25,0,0,0-.06.36,4.36,4.36,0,0,1-2.36,3.89c-.57.32-1-.06-1.17-.5C171.54,45.44,172.84,44.23,173.58,42.87Z" transform="translate(-7.32 -6.99)"/><path class="cls-1" d="M257.86,45l.63.82c-2.15.8-4.06.48-6.19-1.47Z" transform="translate(-7.32 -6.99)"/><path class="cls-2" d="M126.83,56.38l.59-.55.75.65-.74.74Z" transform="translate(-7.32 -6.99)"/><path class="cls-2" d="M222.13,64.37l.45-.24-.27.42Z" transform="translate(-7.32 -6.99)"/><path class="cls-2" d="M166.85,41.26c0-.5.27-.68.74-.64C167.45,41,167.59,41.63,166.85,41.26Z" transform="translate(-7.32 -6.99)"/></g></g></svg>